<svg xmlns="http://www.w3.org/2000/svg" version="1.1" xmlns:xlink="http://www.w3.org/1999/xlink" xmlns:svgjs="http://svgjs.dev/svgjs" width="1000" height="1125" viewBox="0 0 1000 1125"><g transform="matrix(1,0,0,1,0,0)"><svg viewBox="0 0 320 360" data-background-color="#471aa0" preserveAspectRatio="xMidYMid meet" height="1125" width="1000" xmlns="http://www.w3.org/2000/svg" xmlns:xlink="http://www.w3.org/1999/xlink"><g id="tight-bounds" transform="matrix(1,0,0,1,0,0)"><svg viewBox="0 0 320 360" height="360" width="320"><g><svg></svg></g><g><svg viewBox="0 0 320 360" height="360" width="320"><g><path xmlns="http://www.w3.org/2000/svg" d="M320 141.95l-19.957-19.957v-28.224l-53.812-53.812h-28.223l-19.958-19.957h-76.1l-19.957 19.957h-28.224l-53.812 53.812v28.224l-19.957 19.957v76.104l19.957 19.958v28.223l53.816 53.808h28.224l19.957 19.957h76.104l19.958-19.957h28.223l53.812-53.812v-28.224l19.949-19.957zM244.374 44.437l51.189 51.189v21.887l-73.076-73.076zM295.563 123.849v112.306l-79.408 79.408h-112.306l-79.412-79.412v-112.302l79.412-79.412h112.306zM123.807 24.48h72.39l15.478 15.477h-103.346zM24.437 95.626l51.189-51.189h21.887l-73.076 73.076zM4.484 216.197v-72.394l15.477-15.478v103.342zM75.626 315.563l-51.189-51.189v-21.887l73.076 73.076zM196.197 335.52h-72.39l-15.478-15.477h103.342zM295.563 264.374l-51.189 51.189h-21.887l73.076-73.076zM315.52 216.197l-15.477 15.478v-103.346l15.477 15.478z" fill="#000000" fill-rule="nonzero" stroke="none" stroke-width="1" stroke-linecap="butt" stroke-linejoin="miter" stroke-miterlimit="10" stroke-dasharray="" stroke-dashoffset="0" font-family="none" font-weight="none" font-size="none" text-anchor="none" style="mix-blend-mode: normal" data-fill-palette-color="tertiary"></path></g><g transform="matrix(1,0,0,1,80.93153679327195,90)"><svg viewBox="0 0 158.1369264134561 180" height="180" width="158.1369264134561"><g><svg viewBox="0 0 158.1369264134561 180" height="180" width="158.1369264134561"><g><svg viewBox="0 0 208 236.756846418726" height="180" width="158.1369264134561"><g transform="matrix(1,0,0,1,0,137.99334321457587)"><svg viewBox="0 0 208 98.76350320415013" height="98.76350320415013" width="208"><g id="textblocktransform"><svg viewBox="0 0 208 98.76350320415013" height="98.76350320415013" width="208" id="textblock"><g><svg viewBox="0 0 208 98.76350320415013" height="98.76350320415013" width="208"><g transform="matrix(1,0,0,1,0,0)"><svg width="208" viewBox="3 -37.5 80 37.9900016784668" height="98.76350320415013" data-palette-color="#ffffff"><path d="M3-37.5L9.06-37.5 9.06-5.71 8.47 0 3 0 3-37.5ZM26.25-13.45L26.25-12.94Q26.25-9.03 25.09-6.01 23.93-2.98 21.64-1.25 19.36 0.49 15.97 0.49L15.97 0.49Q12.67 0.49 10.51-1.17 8.35-2.83 7.17-5.75 5.98-8.67 5.54-12.48L5.54-12.48 5.54-13.92Q5.98-17.75 7.17-20.67 8.35-23.58 10.5-25.24 12.65-26.9 15.92-26.9L15.92-26.9Q19.34-26.9 21.63-25.2 23.93-23.49 25.09-20.46 26.25-17.43 26.25-13.45L26.25-13.45ZM20.19-12.94L20.19-13.45Q20.19-15.77 19.67-17.7 19.14-19.63 17.88-20.79 16.63-21.95 14.4-21.95L14.4-21.95Q12.87-21.95 11.77-21.44 10.67-20.92 9.92-20.02 9.18-19.12 8.76-17.9 8.35-16.67 8.2-15.26L8.2-15.26 8.2-11.11Q8.42-9.28 9.11-7.76 9.79-6.25 11.11-5.36 12.43-4.47 14.45-4.47L14.45-4.47Q16.63-4.47 17.87-5.59 19.12-6.71 19.65-8.63 20.19-10.55 20.19-12.94L20.19-12.94ZM30-12.94L30-13.45Q30-17.31 31.47-20.34 32.93-23.36 35.68-25.13 38.43-26.9 42.28-26.9L42.28-26.9Q46.19-26.9 48.95-25.13 51.71-23.36 53.16-20.34 54.61-17.31 54.61-13.45L54.61-13.45 54.61-12.94Q54.61-9.11 53.16-6.07 51.71-3.03 48.96-1.27 46.21 0.49 42.33 0.49L42.33 0.49Q38.45 0.49 35.69-1.27 32.93-3.03 31.47-6.07 30-9.11 30-12.94L30-12.94ZM36.06-13.45L36.06-12.94Q36.06-10.6 36.72-8.65 37.38-6.71 38.75-5.54 40.13-4.37 42.33-4.37L42.33-4.37Q44.5-4.37 45.88-5.54 47.26-6.71 47.91-8.65 48.56-10.6 48.56-12.94L48.56-12.94 48.56-13.45Q48.56-15.77 47.91-17.72 47.26-19.68 45.87-20.86 44.48-22.05 42.28-22.05L42.28-22.05Q40.11-22.05 38.73-20.86 37.35-19.68 36.7-17.72 36.06-15.77 36.06-13.45L36.06-13.45ZM58.39-12.94L58.39-13.45Q58.39-17.31 59.86-20.34 61.32-23.36 64.07-25.13 66.82-26.9 70.67-26.9L70.67-26.9Q74.58-26.9 77.34-25.13 80.1-23.36 81.55-20.34 83-17.31 83-13.45L83-13.45 83-12.94Q83-9.11 81.55-6.07 80.1-3.03 77.35-1.27 74.6 0.49 70.72 0.49L70.72 0.49Q66.84 0.49 64.08-1.27 61.32-3.03 59.86-6.07 58.39-9.11 58.39-12.94L58.39-12.94ZM64.45-13.45L64.45-12.94Q64.45-10.6 65.11-8.65 65.77-6.71 67.15-5.54 68.53-4.37 70.72-4.37L70.72-4.37Q72.9-4.37 74.27-5.54 75.65-6.71 76.3-8.65 76.95-10.6 76.95-12.94L76.95-12.94 76.95-13.45Q76.95-15.77 76.3-17.72 75.65-19.68 74.26-20.86 72.87-22.05 70.67-22.05L70.67-22.05Q68.5-22.05 67.12-20.86 65.74-19.68 65.1-17.72 64.45-15.77 64.45-13.45L64.45-13.45Z" opacity="1" transform="matrix(1,0,0,1,0,0)" fill="#000000" class="undefined-text-0" data-fill-palette-color="primary" id="text-0"></path></svg></g></svg></g></svg></g></svg></g><g transform="matrix(1,0,0,1,39.727999999999994,0)"><svg viewBox="0 0 128.544 114.67765043215293" height="114.67765043215293" width="128.544"><g><svg xmlns="http://www.w3.org/2000/svg" xmlns:xlink="http://www.w3.org/1999/xlink" version="1.1" x="0" y="0" viewBox="8.386999130249023 13.005000114440918 84.19200134277344 75.1100082397461" enable-background="new 0 0 100 100" xml:space="preserve" height="114.67765043215293" width="128.544" class="icon-icon-0" data-fill-palette-color="accent" id="icon-0"><g fill="#ffffff" data-fill-palette-color="accent"><path d="M49.569 22.967c-9.975-5.691-20.677-9.125-31.045-9.962v58.351c10.367 0.814 21.05 4.154 31.045 9.699V22.967z" fill="#000000" data-fill-palette-color="accent"></path><path d="M82.444 13.005c-10.368 0.838-21.071 4.271-31.045 9.962v58.087c9.993-5.545 20.679-8.885 31.045-9.699V13.005z" fill="#000000" data-fill-palette-color="accent"></path><path d="M49.229 84.073c0.814 0.278 1.671 0.29 2.485 0.012 11.657-5.043 23.865-7.313 35.798-6.79V19.524c-1.074-0.048-2.155-0.059-3.24-0.055v53.594l-0.852 0.056c-10.672 0.697-21.732 4.177-32.021 10.048-0.594 0.203-1.237 0.203-1.83 0-10.29-5.871-21.349-9.351-32.021-10.048l-0.854-0.056V19.469c-1.084-0.004-2.166 0.006-3.239 0.055v57.771C25.387 76.771 37.569 79.03 49.229 84.073z" fill="#000000" data-fill-palette-color="accent"></path><path d="M92.579 26.009c-1.07-0.149-2.157-0.228-3.237-0.335v53.55l-0.968-0.056c-12.195-0.699-25.06 1.777-36.975 7.065l-0.916 0.381-0.915-0.381c-11.917-5.288-24.781-7.765-36.976-7.065l-0.967 0.056v-53.55c-1.081 0.108-2.168 0.187-3.238 0.335v58.707c0.594 0.307 1.044 0.748 1.044 0.748 12.951-1.75 26.393-1.536 39.18 2.651 0.588-0.058 1.212-0.095 1.873-0.095 0.661 0 1.285 0.037 1.872 0.095 12.785-4.188 26.229-4.401 39.179-2.651 0 0 0.474-0.462 1.044-0.748V26.009z" fill="#000000" data-fill-palette-color="accent"></path></g></svg></g></svg></g><g></g></svg></g></svg></g></svg></g></svg></g><defs></defs></svg><rect width="320" height="360" fill="none" stroke="none" visibility="hidden"></rect></g></svg></g></svg>